<?xml version="1.0" encoding="UTF-8"?>
<!-- Generated by Pixelmator Pro 4.0 -->
<svg width="180" height="180" viewBox="0 0 180 180" xmlns="http://www.w3.org/2000/svg">
    <path id="colored" fill="#811d1e" fill-rule="evenodd" stroke="none" d="M 145.627625 40.391159 C 145.627625 17.197174 145.607468 16.41951 145.318161 16.467453 C 145.147964 16.495636 140.427765 18.868591 134.828857 21.740677 C 129.22995 24.612762 124.459244 27.086441 124.22728 27.237747 C 123.80555 27.512863 123.80555 27.512863 123.80555 39.42041 C 123.80555 51.327942 123.80555 51.327942 124.21302 51.270889 C 124.437134 51.239517 127.146767 49.937393 130.234467 48.377258 C 133.322159 46.817123 138.048767 44.38205 140.738037 42.965927 L 145.627625 40.391159 Z M 121.360756 51.240204 C 121.478325 51.203598 121.559387 47.140884 121.591835 39.659698 C 121.619316 33.321457 121.599968 27.963242 121.548813 27.752563 C 121.478493 27.462936 120.230186 26.741074 116.428146 24.791519 C 113.662941 23.373581 108.919403 20.955627 105.886971 19.418289 C 102.854568 17.880981 100.189278 16.588089 99.964119 16.545242 C 99.554779 16.467331 99.554779 16.467331 99.500084 21.670395 C 99.470001 24.53212 99.446014 29.86554 99.44677 33.522491 C 99.448135 40.171463 99.448135 40.171463 99.877464 40.463989 C 100.113602 40.624878 105.003204 43.128021 110.743225 46.02652 C 116.483276 48.925018 121.261147 51.271179 121.360756 51.240204 Z M 121.244301 53.639969 C 121.404549 53.645134 121.448074 53.538109 121.3694 53.332359 C 121.303062 53.158813 121.192459 52.965462 121.123642 52.902687 C 121.054848 52.83989 119.979897 52.256996 118.734871 51.607391 C 117.48983 50.957809 115.533981 49.944641 114.388557 49.355972 C 113.243134 48.767288 111.165047 47.692368 109.770607 46.967255 C 108.376183 46.242142 105.63958 44.818481 103.689301 43.803589 C 101.739021 42.788666 99.986938 41.93129 99.795738 41.8983 C 99.54879 41.855667 99.448135 41.942719 99.448135 42.198914 C 99.448135 42.43605 99.789101 42.784714 100.444168 43.217316 C 100.991989 43.579102 102.714714 44.512146 104.272491 45.290756 C 105.830269 46.069351 109.945671 48.162445 113.417839 49.942078 C 116.890022 51.721725 120.016113 53.279984 120.364731 53.404922 C 120.713348 53.529854 121.109138 53.635628 121.244301 53.639969 Z M 125.111099 53.317749 C 125.737701 53.041931 127.920959 51.988815 129.962814 50.977493 C 132.004684 49.966171 134.53096 48.676926 135.576797 48.112503 C 136.622635 47.54805 138.456238 46.579056 139.651459 45.959137 C 140.846695 45.339249 142.639542 44.397095 143.635574 43.865479 C 144.981949 43.146835 145.461395 42.797501 145.50441 42.50383 C 145.53624 42.286545 145.494553 42.108765 145.411789 42.108765 C 145.32901 42.108765 142.939682 43.248444 140.102127 44.641342 C 137.264572 46.034286 133.720566 47.848434 132.226517 48.672806 C 130.732483 49.497162 128.32843 50.764694 126.884186 51.489548 C 125.439957 52.214394 124.145287 52.909126 124.007164 53.033394 C 123.869041 53.157654 123.804581 53.385315 123.863937 53.539291 C 123.956718 53.780006 124.131531 53.748955 125.111099 53.317749 Z M 121.188904 56.352371 C 121.333237 56.352371 121.451309 56.234802 121.451309 56.091103 C 121.451309 55.947403 121.186447 55.636566 120.862747 55.400368 C 120.53904 55.164185 119.051788 54.353439 117.557739 53.598717 C 116.063698 52.844002 113.129951 51.343567 111.038277 50.26445 C 108.946609 49.185318 105.691284 47.514862 103.804214 46.552368 C 101.917114 45.589844 100.178314 44.753677 99.940224 44.694199 C 99.568344 44.601257 99.515915 44.643951 99.56826 44.997055 C 99.601791 45.223145 99.832962 45.548462 100.08197 45.720001 C 100.330978 45.891525 102.32756 46.968491 104.518822 48.113205 C 106.710083 49.257904 111.298248 51.580017 114.714722 53.273422 C 118.131226 54.96685 121.044586 56.352371 121.188904 56.352371 Z M 124.224609 56.494942 C 124.470825 56.44809 128.020874 54.690376 132.113556 52.588928 C 136.206253 50.487488 140.921204 48.060822 142.591217 47.19635 C 145.361664 45.762253 145.632843 45.579071 145.687225 45.105026 C 145.739883 44.646179 145.697525 44.59491 145.325027 44.666321 C 145.093048 44.710754 143.457016 45.492752 141.689407 46.404022 C 139.921768 47.315277 137.130127 48.749054 135.485718 49.590118 C 133.841309 50.431198 131.151978 51.81041 129.509445 52.654991 C 127.866905 53.499596 125.931931 54.494446 125.209534 54.865829 C 124.090858 55.44091 123.887253 55.618057 123.836502 56.0606 C 123.782982 56.527077 123.822624 56.571449 124.224609 56.494942 Z M 124.109055 59.025337 C 124.290749 58.992279 126.06926 58.139366 128.06131 57.129982 C 130.053375 56.12059 133.51683 54.35984 135.757889 53.217209 C 137.998962 52.074554 141.136444 50.466736 142.730087 49.644226 C 145.366058 48.283783 145.633011 48.101974 145.687119 47.630417 C 145.742004 47.151978 145.707123 47.118484 145.234375 47.195465 C 144.952652 47.241333 142.440338 48.440063 139.651459 49.859283 C 136.862579 51.278488 132.380447 53.56839 129.691177 54.947968 C 127.0019 56.327522 124.597847 57.601295 124.348839 57.778564 C 124.099838 57.955826 123.869705 58.322411 123.83741 58.59317 C 123.790459 58.987038 123.844749 59.073425 124.109055 59.025337 Z M 121.335159 59.005325 C 121.44883 58.967651 121.564583 58.820282 121.592361 58.677834 C 121.620155 58.53537 121.538643 58.289131 121.41127 58.130577 C 121.283875 57.972046 119.164726 56.813522 116.702042 55.556107 C 114.239342 54.298676 109.75721 52.003265 106.74176 50.455215 C 103.726288 48.907166 100.91729 47.513763 100.499474 47.358795 C 100.081711 47.203812 99.68483 47.131821 99.617538 47.198807 C 99.550247 47.265808 99.545784 47.521362 99.607628 47.766693 C 99.701988 48.14093 100.69722 48.707016 105.790474 51.283371 C 109.129211 52.972237 113.946098 55.41597 116.494682 56.713936 C 119.043266 58.011879 121.221481 59.043015 121.335159 59.005325 Z M 124.147148 61.761337 C 124.241653 61.761337 125.405487 61.209419 126.733421 60.534836 C 128.061401 59.860252 130.207291 58.755287 131.502136 58.079346 C 132.796982 57.403419 134.793564 56.342484 135.938995 55.721718 C 137.084412 55.100975 138.938202 54.136429 140.058487 53.578293 C 141.178772 53.020157 142.62323 52.347702 143.268433 52.083908 C 143.913589 51.820114 144.728745 51.368546 145.079834 51.080429 C 145.430923 50.792282 145.71817 50.390732 145.71817 50.188049 C 145.71817 49.918121 145.628479 49.842896 145.382782 49.906876 C 145.198273 49.95491 143.262817 50.90683 141.081741 52.022217 C 138.900635 53.137642 136.219696 54.525787 135.124054 55.106987 C 134.028427 55.688179 131.176147 57.147469 128.785706 58.349831 C 126.395241 59.552208 124.285446 60.68322 124.097321 60.86319 C 123.901917 61.050087 123.802422 61.31282 123.865242 61.475883 C 123.925766 61.632896 124.052612 61.761337 124.147148 61.761337 Z M 121.397614 61.761337 C 121.5625 61.761337 121.636421 61.61573 121.599724 61.363197 C 121.567101 61.138832 121.22567 60.75396 120.817467 60.481438 C 120.419067 60.215462 117.913925 58.89212 115.250488 57.540688 C 112.587059 56.189255 108.151161 53.935112 105.392937 52.531425 C 102.634712 51.127747 100.182045 49.942032 99.942566 49.896423 C 99.573769 49.826233 99.51651 49.876541 99.568192 50.225189 C 99.601768 50.451553 99.832962 50.783524 100.08197 50.962875 C 100.330978 51.142242 103.40979 52.748024 106.923759 54.531311 C 110.437744 56.314583 115.073395 58.67086 117.225212 59.767487 C 119.377037 60.864113 121.254608 61.761337 121.397614 61.761337 Z M 46.944584 68.973297 C 47.690456 68.973297 47.755138 68.930229 48.231026 68.116875 C 48.506603 67.645836 49.156574 66.692513 49.675392 65.998367 C 50.19421 65.304214 50.858376 64.452309 51.151306 64.105225 C 51.51569 63.673538 51.805992 62.990021 52.070297 61.941643 C 52.282784 61.098732 52.695843 59.678879 52.98822 58.786407 C 53.442066 57.400932 53.528679 56.821075 53.58065 54.819832 C 53.628799 52.964569 53.71172 52.344391 53.978348 51.84491 C 54.163624 51.497803 54.405708 51.154251 54.516308 51.08139 C 54.626907 51.008514 55.140636 50.947678 55.657909 50.946182 C 56.422638 50.943924 56.651062 50.86853 56.880306 50.542694 C 57.035339 50.322296 57.162338 49.855774 57.162495 49.505951 C 57.162651 49.156174 57.305256 48.60611 57.479412 48.283646 C 57.667427 47.935471 58.458572 47.236847 59.427189 46.563614 C 60.324314 45.940094 61.954178 44.887589 63.04911 44.224716 C 64.144043 43.561844 65.146568 42.948807 65.276932 42.862427 C 65.407318 42.776047 65.708115 41.868881 65.945412 40.846497 C 66.182678 39.824097 66.503395 38.861572 66.658127 38.707535 C 66.89875 38.467957 67.059265 38.459381 67.768196 38.648148 C 68.224014 38.769516 68.672684 38.822266 68.765221 38.765305 C 68.857735 38.708389 68.931351 37.997238 68.92881 37.184952 C 68.926109 36.333298 68.76741 35.059402 68.553864 34.175613 C 68.350197 33.332703 68.140335 32.237396 68.087524 31.741577 C 68.00264 30.944687 68.04747 30.780029 68.473862 30.322723 C 68.773819 30.001022 68.944656 29.626053 68.925644 29.331085 C 68.908821 29.070221 68.903694 28.755371 68.914261 28.631409 C 68.92556 28.498642 69.18856 28.406036 69.554161 28.406036 C 70.007843 28.406036 70.275093 28.532928 70.547447 28.87764 C 70.752373 29.137054 71.005531 29.64415 71.110008 30.004517 C 71.214485 30.364899 71.349312 31.045151 71.409615 31.516205 C 71.469902 31.987228 71.580147 32.37262 71.654556 32.37262 C 71.728989 32.37262 71.827759 32.115723 71.874031 31.801773 C 71.928368 31.433197 72.221146 30.986694 72.700233 30.541779 C 73.151009 30.123138 73.54937 29.89357 73.71508 29.956894 C 73.865135 30.014206 74.122696 30.520355 74.287453 31.08165 C 74.45224 31.642914 74.6269 32.548401 74.675606 33.093811 C 74.728325 33.684097 74.647018 34.58255 74.474701 35.31366 C 74.299126 36.05867 74.185234 37.345367 74.185234 38.584152 C 74.185234 40.300293 74.238556 40.691971 74.519218 41.037048 C 74.720879 41.285004 74.964798 41.40509 75.134842 41.340118 C 75.289719 41.280914 75.500221 40.963135 75.602615 40.633926 C 75.705009 40.304688 75.878525 39.59462 75.98819 39.055984 C 76.097862 38.517319 76.273872 37.973099 76.379349 37.846588 C 76.50087 37.700806 76.774567 37.657089 77.126747 37.727219 C 77.682411 37.837891 77.682411 37.837891 77.562485 35.150314 C 77.471558 33.112473 77.499107 32.35379 77.67646 32.012024 C 77.864189 31.650284 78.052139 31.558899 78.62841 31.54921 C 79.3312 31.537415 79.346603 31.523102 79.352356 30.876251 C 79.355606 30.512726 79.454018 30.11998 79.571075 30.003464 C 79.73407 29.841171 79.85231 29.84816 80.076431 30.033325 C 80.23732 30.16629 80.530388 30.590042 80.727661 30.975037 C 80.924919 31.360016 81.158493 31.649414 81.246681 31.618134 C 81.334862 31.586868 81.880554 31.041458 82.459351 30.406113 C 83.038116 29.770767 83.535912 29.152985 83.565514 29.033218 C 83.597855 28.902344 83.319008 28.767624 82.866615 28.695618 C 82.143166 28.580444 82.117188 28.553589 82.19812 28.004547 C 82.244431 27.690369 82.436691 27.316559 82.625366 27.173889 C 82.814026 27.031174 83.498108 26.661804 84.145515 26.353073 C 84.996239 25.947357 85.338249 25.682617 85.378906 25.398224 C 85.409851 25.181839 85.305977 24.756042 85.148064 24.452011 C 84.960739 24.091354 84.499069 23.717392 83.819557 23.3759 C 83.246803 23.088013 82.415558 22.75528 81.972366 22.636475 C 81.529175 22.51767 80.687454 22.179657 80.10183 21.885345 C 79.516205 21.591019 78.931824 21.390457 78.803162 21.439606 C 78.674507 21.488739 78.431953 21.940399 78.264183 22.443329 C 78.03614 23.126846 77.869781 23.357666 77.605148 23.357666 C 77.410431 23.357666 77.053833 23.228958 76.812721 23.071686 C 76.571609 22.914383 76.289238 22.838043 76.185249 22.902039 C 76.081261 22.966003 75.996201 23.333328 75.996201 23.718262 C 75.996201 24.10321 76.077682 24.468338 76.177292 24.529617 C 76.276901 24.590881 76.358078 24.899933 76.357727 25.216385 C 76.35733 25.532806 76.200279 26.047638 76.008682 26.360458 C 75.784904 26.725891 75.456337 26.973846 75.089745 27.054016 C 74.775894 27.122635 74.219879 27.123657 73.854172 27.056274 C 73.488441 26.988922 72.924416 26.809586 72.600777 26.657791 C 72.277138 26.505997 71.788193 26.423935 71.514198 26.475464 C 71.240211 26.526993 70.699623 26.629669 70.312897 26.70372 C 69.609726 26.838303 69.609726 26.838303 69.738747 25.63887 C 69.809708 24.979218 69.798119 24.439453 69.713036 24.439453 C 69.62793 24.439453 69.090096 24.880264 68.517868 25.419006 C 67.596985 26.286011 67.453201 26.518631 67.266602 27.443695 C 67.135735 28.092484 66.893822 28.650085 66.6287 28.914047 C 66.247498 29.293579 66.100883 29.32547 65.26429 29.210907 C 64.748764 29.140335 63.813599 28.935547 63.186172 28.755844 C 62.558723 28.576126 61.468102 28.264542 60.762554 28.0634 C 60.057003 27.862259 58.856445 27.34079 58.094616 26.904572 C 57.332783 26.468384 55.826313 25.764084 54.746922 25.339478 C 53.66753 24.914886 52.740009 24.452362 52.685783 24.311676 C 52.631557 24.17099 52.677338 23.858902 52.787518 23.618164 C 52.897694 23.377411 53.312767 22.956619 53.70993 22.68309 C 54.107075 22.409531 54.435112 22.085953 54.438892 21.964005 C 54.442673 21.842087 54.12991 21.581879 53.743862 21.385803 C 53.347076 21.184265 52.866901 20.732025 52.639229 20.345413 C 52.417721 19.969269 51.762749 19.209671 51.183758 18.657394 C 50.404751 17.914322 50.074879 17.445572 49.915051 16.854599 C 49.778984 16.351578 49.757828 15.889084 49.857838 15.605042 C 49.975311 15.271408 50.180592 15.130615 50.646618 15.063919 C 51.226093 14.980988 51.284435 14.915268 51.374474 14.243759 C 51.428303 13.842239 51.74292 13.071472 52.073612 12.530914 C 52.404301 11.990356 52.997108 11.128098 53.390934 10.614822 C 53.985466 9.839966 54.097347 9.564499 54.050018 8.992126 C 53.993027 8.302704 53.993027 8.302704 52.815903 8.159531 C 52.168491 8.080795 51.449989 7.93808 51.219261 7.842407 C 50.85886 7.692978 50.807842 7.56073 50.857071 6.903809 C 50.912426 6.165436 50.896111 6.139114 50.383884 6.139114 C 49.932976 6.139114 49.766315 6.286728 49.273365 7.12262 C 48.916126 7.728348 48.475498 8.208862 48.126194 8.373566 C 47.722752 8.563782 47.431564 8.592148 47.117542 8.471848 C 46.874725 8.378815 46.193935 7.925735 45.604687 7.464951 C 45.015442 7.004211 44.337681 6.274002 44.098576 5.842255 C 43.663853 5.057327 43.663853 5.057327 42.308971 5.027481 C 41.058517 4.999969 40.925415 5.03299 40.581726 5.455872 C 40.351223 5.739517 39.937237 5.961197 39.495152 6.037781 C 39.000675 6.123413 38.801605 6.241241 38.848072 6.420761 C 38.884991 6.563324 39.017452 7.055008 39.142464 7.513336 C 39.267475 7.971649 39.720394 8.860687 40.148972 9.488998 C 40.577526 10.117325 40.961979 10.807495 41.003296 11.022659 C 41.058121 11.308182 40.90258 11.54747 40.427711 11.908096 C 40.069809 12.179855 39.776985 12.551041 39.776985 12.732956 C 39.776985 12.914825 39.863976 13.250031 39.970306 13.477814 C 40.076641 13.705597 40.545231 14.174362 41.011608 14.519531 C 41.478012 14.864685 42.171314 15.449463 42.552296 15.819031 C 43.03017 16.282562 43.226765 16.616791 43.186131 16.896622 C 43.15337 17.122467 42.82613 17.505524 42.447975 17.760712 C 42.074375 18.012863 41.372807 18.827652 40.888916 19.571381 C 40.405052 20.315125 39.544006 21.429184 38.975494 22.047089 C 38.148911 22.94548 37.756256 23.225418 37.015579 23.444412 C 36.506138 23.595032 35.476418 23.718262 34.727318 23.718262 C 33.437099 23.718262 33.333023 23.749146 32.752682 24.304245 C 32.415737 24.626526 32.020473 25.117554 31.874306 25.395447 C 31.611084 25.895905 31.620745 25.913193 32.897217 27.223801 C 34.18578 28.546875 34.185844 28.546982 34.41732 29.986267 C 34.589024 31.053848 34.597755 31.577866 34.451187 32.01506 C 34.342491 32.339249 34.073498 32.722305 33.853409 32.866302 C 33.485378 33.107101 33.416695 33.088837 32.997601 32.638626 C 32.552887 32.160858 32.508205 32.152237 31.134048 32.279114 C 30.001535 32.383667 29.555693 32.518692 28.854719 32.969376 C 28.176117 33.40564 28.004328 33.609833 28.078428 33.891953 C 28.130754 34.091217 28.359932 34.396118 28.587673 34.569473 C 28.815435 34.742859 29.403488 35.058243 29.894474 35.270294 C 30.584791 35.56842 30.983482 35.629944 31.652908 35.541534 C 32.12904 35.478622 32.725624 35.478912 32.978611 35.542145 C 33.265907 35.613922 33.438625 35.783569 33.438625 35.993973 C 33.438625 36.17926 33.255272 36.448441 33.031158 36.592148 C 32.807041 36.73584 32.338474 36.905014 31.989855 36.968048 C 31.641237 37.031067 30.795576 36.993301 30.110586 36.884094 C 29.425617 36.774887 28.821537 36.728973 28.768238 36.782059 C 28.714918 36.835144 28.757561 37.067078 28.863008 37.297485 C 28.968456 37.527908 29.328039 37.988892 29.66209 38.321899 C 29.996141 38.654907 30.634464 39.158081 31.080572 39.440094 C 31.526703 39.722061 32.328018 40.089706 32.861271 40.257065 C 33.72015 40.526596 33.883915 40.531311 34.296177 40.298325 C 34.552128 40.153671 35.013973 39.549057 35.322491 38.954712 C 35.631008 38.360382 36.025787 37.847397 36.199806 37.814728 C 36.397705 37.777573 36.576347 37.912872 36.676823 38.175964 C 36.765182 38.407303 36.892269 39.812759 36.959297 41.29924 C 37.055241 43.427399 37.153194 44.136383 37.420151 44.634659 C 37.606598 44.982681 37.844463 45.794037 37.948738 46.437637 C 38.052994 47.081284 38.216446 48.297501 38.31197 49.140411 C 38.415913 50.057846 38.853645 51.830826 39.402569 53.557739 C 39.906883 55.144371 40.608166 57.061501 40.960941 57.818069 C 41.313736 58.574631 41.797073 59.913345 42.035049 60.792999 C 42.273026 61.672668 42.771217 63.316788 43.14212 64.446609 C 43.775799 66.376808 43.887238 66.575462 44.987873 67.737061 C 46.085835 68.895866 46.208416 68.973297 46.944584 68.973297 Z M 127.744392 74.190536 C 112.480263 74.184242 99.821777 74.110779 99.614464 74.027275 C 99.369789 73.928741 99.091431 73.474075 98.821152 72.731529 C 98.592155 72.102379 98.134926 71.181953 97.805092 70.686134 C 97.475266 70.190315 96.85434 69.447594 96.425255 69.035645 C 95.99617 68.623703 95.337532 68.08239 94.961563 67.832687 C 94.585594 67.583023 93.718056 67.165726 93.033638 66.905334 C 92.125107 66.559708 91.760414 66.324783 91.682343 66.034851 C 91.623535 65.81646 91.574303 51.134964 91.572937 33.409332 C 91.570473 1.419662 91.573135 1.178223 91.932648 0.820313 C 92.292076 0.462448 92.536308 0.459702 123.896103 0.459702 C 155.25592 0.459702 155.500122 0.462448 155.859558 0.820313 C 156.219345 1.178528 156.221741 1.42128 156.221741 37.330841 C 156.221741 73.240356 156.219345 73.48317 155.859558 73.84137 C 155.500412 74.198929 155.263657 74.201874 127.744392 74.190536 Z M 51.988503 74.105171 C 36.941589 74.108818 24.493557 74.085579 24.326189 74.053535 C 24.158821 74.021492 23.980843 73.818657 23.930706 73.602783 C 23.880547 73.386925 23.817322 60.107086 23.790197 44.092041 C 23.763094 28.077011 23.783697 11.823166 23.835979 7.972427 C 23.926506 1.308762 23.948036 0.95874 24.282618 0.715363 C 24.582912 0.496948 29.287497 0.459702 56.562992 0.459702 C 88.250351 0.459702 88.494568 0.462448 88.854019 0.820313 C 89.213531 1.178223 89.216187 1.419525 89.213531 33.409332 C 89.211433 58.965233 89.163635 65.731079 88.982697 66.088509 C 88.812675 66.424355 88.405144 66.656059 87.384026 66.997452 C 86.630264 67.249428 85.677696 67.720428 85.26722 68.044113 C 84.856728 68.367775 84.189178 69.007805 83.783745 69.466362 C 83.378311 69.924927 82.757149 70.914352 82.403397 71.665077 C 82.049652 72.415787 81.662651 73.232857 81.543411 73.480774 C 81.360481 73.861153 81.172089 73.944542 80.336555 74.015022 C 79.792007 74.060951 67.035393 74.101509 51.988503 74.105171 Z M 122.854797 147.941757 C 117.823418 147.944122 117.635643 147.931641 117.272079 147.569672 C 116.895874 147.195114 116.895874 147.195114 116.955162 130.720673 C 116.998932 118.557648 117.069275 114.191658 117.223976 114.037682 C 117.382545 113.879852 117.505394 113.938461 117.729378 114.27877 C 117.892128 114.526062 119.07296 117.840973 120.3535 121.645233 C 121.634041 125.449509 123.352417 130.509323 124.172165 132.889252 C 124.991898 135.269196 126.42318 139.469635 127.352798 142.223572 C 128.282425 144.977493 128.999863 147.342667 128.947113 147.479538 C 128.894348 147.616409 128.673462 147.775848 128.456268 147.833862 C 128.239044 147.891846 125.718384 147.940399 122.854797 147.941757 Z M 107.903717 147.944214 C 103.179344 147.944214 102.080017 147.897598 101.791725 147.685135 C 101.44886 147.432419 101.461044 147.366913 102.28643 145.025726 C 102.751854 143.705551 103.625702 141.26564 104.228302 139.603683 C 104.830879 137.941711 105.854095 135.121689 106.502129 133.336929 C 107.150131 131.55217 108.252777 128.510498 108.952446 126.577652 C 109.652138 124.644821 110.839851 121.339172 111.591827 119.231812 C 112.343803 117.124466 113.160461 114.960106 113.406654 114.422112 C 113.759895 113.650238 113.90107 113.490532 114.076157 113.664825 C 114.247345 113.835236 114.308975 117.692474 114.346046 130.551575 C 114.393616 147.051498 114.390465 147.22113 114.029129 147.580856 C 113.678543 147.929916 113.437271 147.944214 107.903717 147.944214 Z M 72.837669 147.938736 C 69.478371 147.935349 67.272789 147.862869 67.077217 147.749481 C 66.778954 147.576538 66.7603 146.569366 66.7603 130.637192 C 66.7603 118.059464 66.813904 113.675713 66.968872 113.580376 C 67.08358 113.509789 67.277985 113.588936 67.400879 113.756248 C 67.523766 113.923584 69.181679 118.641861 71.085136 124.241364 C 72.988609 129.840866 75.544609 137.348389 76.765152 140.924789 C 78.916283 147.228058 78.973518 147.435196 78.632744 147.685745 C 78.345451 147.897003 77.286438 147.943207 72.837669 147.938736 Z M 56.970455 147.931061 C 53.10722 147.94162 52.092201 147.894302 51.812401 147.690628 C 51.496742 147.460846 51.484783 147.363525 51.685024 146.653915 C 51.806564 146.22319 52.353016 144.632721 52.899376 143.119507 C 53.445717 141.606308 54.536049 138.563782 55.32233 136.358307 C 56.108593 134.152847 57.708103 129.75206 58.876785 126.578804 C 60.045464 123.405548 61.407993 119.67334 61.904613 118.285049 C 62.401237 116.896751 62.943108 115.4813 63.108799 115.139633 C 63.274464 114.797958 63.504215 114.489487 63.61937 114.45414 C 63.74321 114.416107 63.909626 114.765472 64.026833 115.309631 C 64.161484 115.934738 64.224953 121.153412 64.224953 131.601593 C 64.224953 144.244385 64.181427 147.033096 63.979748 147.307678 C 63.823856 147.519928 63.378674 147.691833 62.757351 147.779709 C 62.219898 147.855713 59.61578 147.923828 56.970455 147.931061 Z M 84.779358 150.919159 C 84.779358 147.85408 84.779358 147.85408 83.533234 147.824005 C 82.769768 147.805603 82.195816 147.700867 82.051353 147.553558 C 81.921677 147.421356 81.003616 145.000854 80.011215 142.174667 C 79.018837 139.348465 77.380859 134.663864 76.3713 131.764389 C 75.361717 128.864929 73.560638 123.692543 72.368858 120.270187 C 71.177101 116.847809 69.458168 111.917976 68.549019 109.315002 C 67.136635 105.271255 66.882988 104.368935 66.806587 103.116348 C 66.726082 101.796722 66.755455 101.612221 67.100914 101.268288 C 67.48468 100.886208 67.48468 100.886208 90.574425 100.886208 C 113.664177 100.886208 113.664177 100.886208 114.051285 101.271622 C 114.403816 101.622589 114.428467 101.785294 114.327194 103.092621 C 114.254333 104.033539 114.002754 105.127716 113.59713 106.268097 C 113.256752 107.22506 112.487846 109.346733 111.888496 110.982941 C 111.289108 112.619148 110.015266 116.086906 109.057716 118.689072 C 108.100182 121.291229 106.738068 124.982849 106.030815 126.89267 C 105.32357 128.802505 104.273842 131.663208 103.698097 133.249863 C 103.122337 134.836502 101.859131 138.284714 100.890961 140.912567 C 99.922806 143.540405 98.975433 146.107651 98.785713 146.617508 C 98.534782 147.291916 98.30658 147.597427 97.948433 147.738571 C 97.677635 147.845261 97.130096 147.955475 96.731689 147.983475 C 96.007309 148.034363 96.007309 148.034363 96.007309 149.476761 L 96.007309 150.919159 L 106.873077 150.939377 C 112.849243 150.9505 121.609772 150.909943 126.340904 150.849228 L 134.942963 150.738846 L 134.942963 149.386612 C 134.942963 148.034363 134.942963 148.034363 133.72522 147.944214 C 132.821671 147.877319 132.419983 147.761047 132.168228 147.493469 C 131.981628 147.295151 131.253479 145.46962 130.550186 143.436752 C 129.846848 141.40387 128.244446 136.759216 126.989235 133.115295 C 125.734055 129.471375 123.808601 123.873093 122.710487 120.674667 C 121.61235 117.476257 119.946144 112.651634 119.00779 109.953316 C 117.831444 106.570595 117.234413 104.568352 117.084969 103.504898 C 116.923988 102.35923 116.92041 101.848618 117.071007 101.519493 C 117.182549 101.27581 117.459892 101.032562 117.687416 100.978928 C 117.914894 100.925293 120.260605 100.86219 122.90007 100.83873 L 127.69912 100.796059 L 127.69912 99.263512 L 127.69912 97.730972 L 115.475136 97.69532 C 108.751945 97.675735 102.96859 97.594604 102.62326 97.515015 C 102.222275 97.422646 101.91468 97.207489 101.772148 96.919632 C 101.649368 96.671715 101.043404 94.72448 100.425552 92.592453 C 99.807693 90.460426 99.196564 88.452332 99.067482 88.130058 C 98.832779 87.544083 98.832779 87.544083 97.31884 87.544083 C 96.38102 87.544083 95.696007 87.62986 95.518738 87.769463 C 95.361359 87.893417 95.142036 88.17205 95.031372 88.388664 C 94.920738 88.605255 94.830185 88.940613 94.830185 89.133919 C 94.830185 89.43898 94.987137 89.495331 96.019714 89.560783 C 96.792488 89.609772 97.26786 89.727654 97.37661 89.897308 C 97.468658 90.040916 97.741203 90.807487 97.982277 91.600807 C 98.223351 92.394127 98.597588 93.692276 98.813927 94.485596 C 99.030258 95.278915 99.253731 96.20385 99.310524 96.540977 C 99.389336 97.008881 99.334641 97.211624 99.079445 97.3974 C 98.831474 97.577927 97.990829 97.640823 95.826218 97.640823 C 93.594505 97.640823 92.824799 97.580742 92.556671 97.385513 C 92.221603 97.141609 92.244263 97.095963 93.065338 96.361435 C 93.858032 95.65226 93.924706 95.527153 93.924706 94.748734 C 93.924706 94.137009 93.794189 93.711929 93.450325 93.203583 C 93.189423 92.817871 92.708939 92.137192 92.382576 91.690964 C 92.056229 91.24472 91.601517 90.494232 91.372093 90.023193 C 91.142693 89.552155 90.866364 89.166771 90.758003 89.166771 C 90.649681 89.166771 90.26635 89.673866 89.906174 90.29364 C 89.54599 90.913422 88.978569 91.772285 88.645203 92.202209 C 88.311829 92.632156 87.855728 93.232368 87.631622 93.536026 C 87.356926 93.908287 87.224152 94.342995 87.224152 94.870285 C 87.224152 95.5886 87.285896 95.693085 87.980766 96.150803 C 88.396896 96.424904 88.854149 96.765388 88.996864 96.907433 C 89.22213 97.131599 89.21331 97.197029 88.930038 97.403259 C 88.692993 97.575806 87.829666 97.640823 85.775383 97.640823 C 83.638481 97.640823 82.862419 97.579201 82.600739 97.388687 C 82.260895 97.141304 82.26236 97.103226 82.67907 95.360321 C 82.912643 94.3834 83.301666 92.813316 83.543602 91.871254 C 83.785538 90.929199 84.104309 90.036705 84.251961 89.88797 C 84.407654 89.731133 84.993172 89.579666 85.645905 89.527367 C 86.718094 89.44149 86.769135 89.415878 86.723221 88.986481 C 86.696716 88.738564 86.525276 88.332893 86.342255 88.084984 C 86.043953 87.680893 85.862991 87.628731 84.594147 87.581009 C 83.611008 87.54406 83.110741 87.599129 82.956017 87.761314 C 82.833519 87.889755 82.350029 89.17128 81.881599 90.609169 C 81.413162 92.04705 80.819008 94.02459 80.561264 95.003731 C 80.303505 95.982834 79.95237 96.956474 79.780907 97.16732 C 79.470047 97.549591 79.435516 97.550941 67.455482 97.640823 L 55.441795 97.730972 L 55.441795 99.263512 L 55.441795 100.796059 L 59.576653 100.886208 C 63.402725 100.96962 63.730675 101.002495 63.968231 101.32634 C 64.109421 101.518837 64.221947 102.046219 64.2183 102.498283 C 64.21463 102.950348 64.103722 103.847618 63.971813 104.492188 C 63.839905 105.136742 63.32164 106.800011 62.820087 108.188309 C 62.318539 109.576599 61.034195 113.065407 59.965988 115.941162 C 58.897808 118.816925 57.552452 122.467972 56.976337 124.054611 C 56.400196 125.641258 55.231319 128.826813 54.378784 131.133682 C 53.526272 133.440552 52.172161 137.111237 51.369698 139.290817 C 50.567211 141.470383 49.591057 144.119598 49.200436 145.177979 C 48.809814 146.236359 48.333088 147.258774 48.141029 147.449997 C 47.928299 147.661743 47.411095 147.843903 46.81776 147.916016 C 45.843704 148.034363 45.843704 148.034363 45.789543 149.278564 C 45.759743 149.962906 45.777695 150.632614 45.829445 150.766846 C 45.907879 150.970383 49.150719 151.003326 65.351433 150.965042 L 84.779358 150.919159 Z M 92.294846 179.995834 C 91.64743 179.97377 89.569336 179.934738 87.676895 179.909027 C 84.912834 179.871521 83.505867 179.75177 80.523598 179.300186 C 78.481735 178.990997 75.384995 178.385971 73.641945 177.955673 C 71.637863 177.460938 69.141205 176.666336 66.850845 175.794281 C 64.624527 174.946594 61.869179 173.713058 59.700073 172.592926 C 57.759193 171.590652 54.825447 169.884125 53.180614 168.800613 C 51.535786 167.717148 49.637238 166.374237 48.96162 165.816391 C 48.286003 165.258575 47.047642 164.234222 46.209698 163.540085 C 45.371777 162.845932 43.683483 161.237915 42.45797 159.966721 C 41.23243 158.695511 39.837051 157.153946 39.357094 156.541031 C 38.877167 155.928101 38.170532 155.02095 37.786808 154.525131 C 37.403084 154.029297 36.628674 153.022385 36.065887 152.287506 C 35.503124 151.552612 34.61095 150.295044 34.08329 149.492859 C 33.555611 148.690689 32.748924 147.3853 32.290615 146.59198 C 31.832325 145.79866 30.873745 143.93544 30.16048 142.451538 C 29.447193 140.96759 28.540165 138.898636 28.14488 137.853912 C 27.749573 136.809128 27.153605 135.143005 26.820482 134.151352 C 26.487383 133.159698 26.010612 131.643188 25.761009 130.781265 C 25.511406 129.919388 25.097374 128.224945 24.840982 127.015854 C 24.58457 125.806801 24.255362 123.753395 24.109392 122.452789 C 23.891224 120.508682 23.843716 116.279617 23.842279 98.677544 C 23.840555 77.506264 23.844578 77.263016 24.202724 76.906448 C 24.5618 76.54895 24.806387 76.545853 52.623024 76.545853 C 68.521965 76.545853 80.864342 76.615196 81.103912 76.705902 C 81.408653 76.821251 81.671722 77.236542 82.046158 78.193359 C 82.331863 78.923431 82.828392 79.930855 83.149559 80.432053 C 83.470718 80.933266 84.091049 81.648079 84.528046 82.020538 C 84.965096 82.392975 85.850639 82.95652 86.495964 83.272835 C 87.647156 83.837128 87.717461 83.847961 90.225075 83.847961 C 92.780899 83.847961 92.780899 83.847961 94.213013 83.12854 C 95.000671 82.732841 96.021194 82.037743 96.48085 81.58387 C 96.940514 81.129974 97.540901 80.421158 97.815071 80.008682 C 98.089233 79.59623 98.497467 78.749756 98.722252 78.12767 C 98.994156 77.375198 99.274971 76.92205 99.561188 76.773888 C 99.897095 76.599991 106.075874 76.550583 127.744392 76.548515 C 153.942917 76.546005 155.51413 76.56353 155.796951 76.861374 C 156.072678 77.151802 156.094467 78.998245 156.070801 100.07486 C 156.045883 122.278389 156.033844 123.038452 155.673599 125.136398 C 155.469269 126.326378 155.024506 128.395309 154.685257 129.734039 C 154.346008 131.072754 153.660324 133.356598 153.161469 134.80928 C 152.662598 136.261948 151.818314 138.45401 151.285248 139.680527 C 150.752167 140.907089 149.705475 143.085617 148.959213 144.521759 C 148.212936 145.957855 146.832062 148.308334 145.89061 149.745056 C 144.949142 151.181763 143.698532 153.003235 143.111435 153.792801 C 142.524368 154.582352 141.594391 155.75975 141.04483 156.409302 C 140.495285 157.058777 139.38652 158.312775 138.580887 159.195908 C 137.775269 160.079056 136.219696 161.608673 135.124054 162.595139 C 134.028427 163.581589 132.2005 165.083847 131.061996 165.933517 C 129.923523 166.783173 127.886185 168.216675 126.534592 169.11908 C 125.183029 170.021515 123.130684 171.298523 121.973808 171.956863 C 120.816978 172.615219 118.901878 173.598175 117.718056 174.14122 C 116.534256 174.68428 114.547012 175.494293 113.301987 175.941299 C 112.056946 176.38829 110.223351 177.004257 109.227318 177.31015 C 108.231293 177.616028 106.341568 178.111893 105.027939 178.41214 C 103.714279 178.712357 101.71772 179.114716 100.59108 179.306274 C 99.464447 179.497849 97.401749 179.740387 96.007309 179.845291 C 94.612885 179.950134 92.942245 180.017914 92.294846 179.995834 Z"/>
</svg>
